<svg width="263" height="265" viewBox="0 0 263 265" fill="none" xmlns="http://www.w3.org/2000/svg">
<g clip-path="url(#clip0_27_214)">
<mask id="mask0_27_214" style="mask-type:luminance" maskUnits="userSpaceOnUse" x="31" y="30" width="232" height="235">
<path d="M262.675 30.8069H31.0237V264.141H262.675V30.8069Z" fill="white"/>
</mask>
<g mask="url(#mask0_27_214)">
<path d="M138.038 31.0312C122.371 32.5053 109.235 36.2216 95.9054 42.9181C80.1739 50.7681 67.7102 60.9567 56.2717 75.2471C44.1606 90.3699 35.8621 109.05 32.6576 128.37C31.4082 135.899 31.216 138.335 31.216 146.633C31.184 157.11 31.9211 163.999 34.0998 173.707C41.437 206.388 64.9227 236.474 94.9766 251.661C106.864 257.685 119.391 261.626 131.951 263.292C137.206 263.965 150.983 264.253 156.686 263.772C179.499 261.818 200.998 252.879 220.158 237.371C226.887 231.892 235.89 222.184 241.433 214.366C253.672 197.065 260.978 175.854 262.387 153.362C263.861 129.908 256.908 104.372 243.58 84.1223C223.843 54.1324 192.026 34.6515 157.263 31.2873C153.162 30.8708 141.178 30.7105 138.038 31.0312ZM158.224 35.1325C176.583 37.2148 192.539 43.1423 208.816 53.9401C224.836 64.5776 238.453 80.1169 247.328 97.8674C252.455 108.056 255.883 119.11 257.934 131.894C258.767 137.149 259.087 151.183 258.543 157.334C257.325 170.439 253.544 184.344 247.969 196.167C244.989 202.511 238.806 212.508 235.505 216.289L234.256 217.73L233.391 214.847C231.308 208.182 227.784 200.621 224.195 195.206C221.6 191.233 218.107 187.1 211.827 180.532C205.131 173.515 204.779 173.13 201.991 169.542C199.204 165.889 195.936 160.602 196.16 160.026C196.256 159.801 196.224 159.609 196.096 159.609C195.551 159.609 192.827 152.592 192.827 151.183C192.827 150.862 193.596 149.677 194.558 148.555C200.325 141.763 204.106 133.208 205.996 122.763C206.958 117.38 207.182 108.024 206.445 103.378C204.106 88.2556 197.121 75.7594 185.619 66.0832C181.357 62.4947 177.544 60.0598 172.162 57.4327C167.612 55.1895 163.382 53.8117 158.096 52.7546C146.626 50.5439 137.911 51.0243 126.664 54.6127C122.371 55.9585 117.725 58.0734 114.553 60.0918C113.56 60.7325 112.663 61.2453 112.566 61.2453C112.31 61.2453 109.235 63.5524 106.479 65.7631C104.012 67.7496 101.609 70.2164 99.0454 73.4204C98.1161 74.5739 97.0909 75.7914 96.7708 76.1439C96.4502 76.4965 95.6812 77.4897 95.1044 78.3871C94.4957 79.252 93.7586 80.4056 93.4066 80.8859C90.8753 84.6666 87.6389 91.9399 86.1653 97.2267C84.5314 102.962 83.9865 114.112 85.0117 120.84C86.005 127.665 88.8244 136.38 91.3237 140.417C91.8041 141.218 92.2211 142.051 92.2211 142.244C92.2211 142.628 95.5209 147.722 97.3796 150.158L98.597 151.76L97.7641 154.803C94.9122 165.568 93.3421 169.734 89.914 175.726C87.4147 180.179 84.7875 183.319 79.2446 188.606C76.4571 191.233 73.8938 193.7 73.5413 194.053C72.2599 195.366 68.5751 199.884 67.5818 201.358C66.1721 203.409 63.0321 210.041 61.7827 213.597C61.2059 215.167 60.5972 216.865 60.4369 217.346C60.2447 217.827 59.9885 218.147 59.8282 218.051C59.6679 217.955 58.4504 216.481 57.1685 214.751C46.0187 200.044 38.6176 182.39 35.9899 164.351C33.0421 143.846 35.157 124.878 42.4622 106.262C47.4603 93.5099 54.0285 82.9688 63.8011 71.9148C78.86 54.8375 100.615 42.0212 122.916 37.087C134.835 34.4273 146.401 33.7867 158.224 35.1325ZM152.777 54.8694C154.443 55.0292 155.885 55.3179 155.981 55.5101C156.11 55.6704 156.43 55.7343 156.718 55.606C157.006 55.5101 158.064 55.6704 159.089 55.9905C160.114 56.2792 161.14 56.5992 161.396 56.6317C162.71 56.8879 163.607 57.144 164.472 57.5605C165.017 57.7847 166.042 58.1373 166.779 58.3295C167.516 58.5537 168.349 58.9063 168.605 59.1625C168.861 59.4192 169.31 59.6434 169.567 59.6434C170.111 59.6434 174.629 61.8541 175.686 62.6231C176.23 63.0396 176.263 63.1679 175.847 63.6802C175.398 64.1931 175.43 64.1931 176.071 63.8405C176.679 63.5199 177 63.5844 178.089 64.1931C179.531 65.026 179.563 65.1225 178.826 66.3079L178.281 67.1728L179.082 66.4357C180.108 65.5389 180.364 65.5389 181.357 66.5961L182.222 67.4934L181.261 68.9351L180.3 70.3768L181.549 69.0309L182.799 67.6851L183.953 68.6464C184.913 69.4474 185.074 69.7361 184.818 70.2164C184.337 71.1138 184.465 71.4339 184.978 70.6974C185.458 70.0886 185.49 70.1206 186.644 71.2416C187.637 72.2349 187.765 72.4916 187.413 72.9081C187.157 73.2287 187.125 73.4204 187.317 73.4204C187.509 73.4204 187.733 73.2287 187.797 73.0039C187.926 72.7797 188.47 73.1323 189.335 74.0297C190.489 75.2152 190.617 75.4713 190.168 75.7275C189.848 75.8878 189.624 76.1759 189.624 76.3681C189.624 76.6568 189.72 76.6568 190.008 76.3681C190.809 75.5671 190.969 75.6955 194.077 79.8927C194.462 80.4055 194.462 80.6617 194.173 81.1426C193.917 81.5266 193.917 81.7514 194.109 81.7514C194.27 81.7514 194.43 81.591 194.43 81.3668C194.43 79.5082 199.3 88.9282 200.678 93.446C201.158 95.016 201.735 96.9706 201.991 97.7715C203.529 102.866 204.01 114.048 202.953 121.001C202.664 122.923 202.311 124.878 202.152 125.326C201.991 125.774 201.703 126.928 201.478 127.889C201.254 128.851 200.966 129.78 200.838 129.972C200.709 130.132 200.517 130.805 200.389 131.414C200.197 132.535 199.908 133.176 197.569 138.142C195.487 142.532 192.251 147.306 191.706 146.729C191.45 146.505 190.713 143.621 190.425 141.699C190.264 140.674 190.297 140.353 190.553 140.545C190.777 140.674 190.713 140.257 190.393 139.52C190.104 138.847 189.816 137.373 189.752 136.22C189.655 135.066 189.528 133.24 189.399 132.118C189.239 130.164 189.431 129.747 190.2 130.516C190.425 130.741 190.585 130.773 190.585 130.645C190.585 130.516 190.232 130.1 189.784 129.747C189.111 129.235 188.983 128.851 188.983 127.376C188.983 126.287 189.111 125.647 189.367 125.647C189.56 125.647 189.496 125.422 189.207 125.07C188.598 124.397 188.47 121.962 189.015 121.609C189.271 121.481 189.271 121.321 189.015 121.064C188.534 120.584 188.566 117.54 189.047 117.06C189.335 116.771 189.335 116.675 189.015 116.675C188.759 116.675 188.63 116.13 188.63 114.977C188.63 111.197 188.438 106.838 188.214 105.878C188.054 105.237 188.118 104.788 188.342 104.66C188.63 104.5 188.63 104.372 188.374 104.211C188.182 104.084 187.926 103.315 187.829 102.481C187.637 101.168 187.701 100.975 188.214 100.944C188.791 100.912 188.791 100.879 188.246 100.751C187.125 100.463 186.612 97.6112 187.637 97.3551C188.054 97.2267 188.022 97.1948 187.477 97.1628C186.996 97.1303 186.676 96.8102 186.42 96.0093C186.227 95.4005 186.099 94.6954 186.163 94.5031C186.259 94.2789 186.132 93.8944 185.875 93.6702C185.106 92.9012 185.01 91.7157 185.651 90.9786C186.259 90.306 186.259 90.306 185.555 90.6905C184.978 90.9786 184.786 90.9467 184.529 90.4982C184.017 89.505 184.017 88.6076 184.497 87.9669C184.946 87.3902 184.946 87.3902 184.369 87.8386C183.856 88.2556 183.728 88.2231 183.312 87.6788C183.055 87.2943 182.927 86.6856 183.023 86.2047C183.151 85.5001 183.087 85.3717 182.607 85.5001C182.158 85.596 181.934 85.4037 181.678 84.6666C181.325 83.7053 181.39 83.6095 182.895 82.4559C184.369 81.3349 184.818 80.7901 184.273 80.7901C184.113 80.7901 183.376 81.3988 182.607 82.1359L181.197 83.4811L180.46 82.5204C180.044 82.0075 179.435 81.3024 179.114 80.9504C178.057 79.8288 177.705 78.9314 178.089 78.2268C178.281 77.8742 178.313 77.5861 178.121 77.5861C177.961 77.5861 177.737 77.8104 177.641 78.0985C177.449 78.5794 177.352 78.5469 176.648 77.9062C176.199 77.4897 175.782 76.913 175.654 76.5604C175.558 76.2403 175.302 75.9836 175.078 75.9836C174.853 75.9836 174.34 75.6316 173.956 75.2152L173.219 74.4142L173.924 73.3565L174.629 72.2993L173.86 73.1642C172.931 74.2539 172.738 74.2539 171.521 73.2926C170.688 72.6194 170.624 72.4596 171.008 72.0107C171.264 71.7226 171.393 71.4019 171.297 71.338C171.2 71.2416 170.944 71.37 170.72 71.6261C170.367 72.0751 170.207 72.0751 169.31 71.5942C168.221 71.0494 167.868 70.6329 167.965 70.0886C168.028 69.8964 167.996 69.8319 167.932 69.9603C167.676 70.4087 167.035 70.2484 165.85 69.4155C165.209 68.967 164.472 68.6145 164.28 68.6145C164.055 68.6145 163.286 68.3264 162.581 68.0058C159.442 66.5322 158.032 65.9554 157.807 66.0193C157.647 66.0512 157.006 65.9234 156.366 65.7312C154.443 65.1863 150.15 64.4493 148.772 64.4493C148.035 64.4493 147.298 64.289 147.074 64.0648C146.786 63.7766 146.689 63.7766 146.689 64.0648C146.689 64.3209 145.728 64.4173 143.325 64.3854C141.467 64.3534 139.865 64.4493 139.737 64.5457C139.64 64.6735 138.968 64.7699 138.295 64.7699C137.366 64.7699 137.077 64.6415 137.077 64.1931C137.077 63.8086 136.949 63.8725 136.661 64.4493C136.341 65.1225 135.988 65.2822 134.739 65.3467C133.905 65.4106 133.233 65.5709 133.233 65.6987C133.233 65.859 132.752 66.0512 132.207 66.1796C131.406 66.3399 131.054 66.2435 130.766 65.827C130.381 65.3467 130.349 65.3467 130.349 65.9554C130.349 66.4677 130.029 66.7564 129.163 67.0445C128.138 67.3651 127.946 67.3651 127.529 66.8203C127.081 66.2435 127.081 66.2435 127.241 66.9486C127.402 67.5893 127.241 67.7816 126.248 68.198C125.351 68.5825 124.966 68.6145 124.486 68.2944C123.973 67.9738 123.909 68.0058 124.069 68.5186C124.357 69.3835 122.211 70.4406 121.441 69.8319C121.025 69.4799 120.993 69.4799 121.185 69.8319C121.474 70.3129 120.545 71.4984 119.871 71.4984C119.647 71.4984 118.878 72.0107 118.174 72.6519C117.405 73.3565 116.7 73.741 116.411 73.6126C116.091 73.5168 115.93 73.6451 115.93 74.0616C115.93 74.3817 115.547 74.9584 115.098 75.311C114.393 75.8558 114.136 75.9197 113.752 75.5997C113.335 75.2471 113.271 75.279 113.464 75.7594C113.624 76.1439 113.432 76.7207 113.015 77.2975C112.342 78.2907 111.637 78.483 111.317 77.8103C111.221 77.6181 111.221 77.7459 111.317 78.1624C111.509 78.9958 110.292 80.9179 109.683 80.6617C109.427 80.5659 109.298 80.7901 109.298 81.2385C109.298 82.2956 108.273 83.6734 107.472 83.6734C106.991 83.6734 106.927 83.7698 107.216 83.962C107.825 84.3146 106.831 86.2366 105.934 86.4933C105.518 86.5892 105.421 86.7175 105.678 86.8779C105.966 87.0376 105.838 87.4866 105.325 88.5118C104.909 89.2808 104.332 90.626 104.076 91.5234C103.787 92.3883 103.403 93.0934 103.211 93.0615C103.018 93.0295 102.923 93.2538 103.018 93.6383C103.115 93.9908 103.018 94.9516 102.826 95.7851C102.602 96.618 102.281 97.8674 102.122 98.5725C101.865 99.5977 101.384 124.044 101.48 130.933C101.513 131.798 101.288 134.33 101.032 136.54C100.744 138.751 100.391 141.699 100.231 143.109C100.071 144.518 99.8145 146.088 99.6541 146.601L99.398 147.498L98.597 146.441C98.1486 145.832 97.5074 144.839 97.1873 144.23C96.8667 143.621 96.5141 143.045 96.3538 142.948C95.8415 142.596 94.4318 139.36 94.5921 138.911C94.688 138.655 94.656 138.527 94.4637 138.623C94.1112 138.847 92.5412 136.252 92.5412 135.387C92.5412 135.066 92.317 134.489 92.0608 134.169C91.3237 133.208 89.113 125.614 88.5363 122.186C88.3759 121.257 88.4398 120.84 88.6966 120.84C88.9208 120.84 88.8888 120.68 88.6002 120.392C87.3508 119.142 87.6069 105.333 88.9847 100.11C89.145 99.4374 89.4656 98.2199 89.6898 97.3551C89.8821 96.5216 90.2021 95.849 90.3624 95.849C90.5227 95.849 90.5866 95.5603 90.4588 95.2402C90.2985 94.6954 91.1315 92.0038 91.484 92.0038C91.5479 92.0038 91.9005 92.1641 92.2531 92.3244C93.0221 92.7728 93.0221 92.5167 92.2531 91.7796C91.6763 91.2673 91.6763 91.107 92.0928 90.1457C92.317 89.537 92.8298 88.9921 93.2144 88.8963C93.6947 88.7679 93.7586 88.6396 93.4705 88.4473C92.7979 88.0308 94.4957 85.1156 95.3931 85.1475C95.8735 85.1475 95.9699 85.0511 95.7451 84.8269C95.2328 84.3146 95.3606 83.5775 96.258 82.2956C96.9306 81.3024 97.1554 81.1426 97.5393 81.4627C97.9238 81.7514 97.9563 81.6869 97.828 80.9179C97.6038 79.6365 98.9815 77.9062 99.7186 78.5149C100.263 78.9958 100.423 78.5469 99.9103 78.0346C99.7186 77.8423 99.8783 77.2975 100.423 76.4965C101.096 75.5352 101.416 75.311 102.025 75.4394C102.858 75.5997 103.018 75.3749 102.442 74.7981C101.929 74.2858 103.98 72.0432 104.781 72.2349C105.229 72.3632 105.325 72.2674 105.165 71.6906C104.941 70.7613 106.703 69.1274 107.6 69.4155C108.049 69.5758 108.145 69.4799 108.017 68.999C107.825 68.198 109.811 66.5641 110.612 66.8842C110.997 67.0445 111.093 66.9486 110.932 66.5961C110.708 66.0193 113.111 64.257 113.656 64.6096C113.848 64.7054 114.008 64.5776 114.008 64.289C114.008 63.6483 115.899 62.4628 116.668 62.655C117.02 62.7515 117.212 62.5912 117.212 62.2386C117.212 61.4057 119.583 60.3805 120.224 60.8928C120.609 61.2134 120.672 61.1814 120.513 60.6686C120.384 60.1557 120.641 59.9315 121.826 59.4831C123.268 58.9382 123.332 58.9382 123.812 59.515C124.293 60.0918 124.293 60.0918 124.133 59.3872C124.005 58.7779 124.165 58.5537 124.998 58.2017C127.177 57.3363 127.402 57.3363 127.561 58.1053C127.69 58.7779 127.69 58.7779 127.754 58.0095C127.785 57.3043 128.01 57.1121 129.163 56.7915C129.9 56.5673 130.669 56.4395 130.83 56.4714C131.022 56.5353 131.438 56.4069 131.791 56.2147C132.88 55.606 134.835 55.3498 134.835 55.7982C134.835 56.0869 134.995 56.0549 135.411 55.7024C136.084 55.0937 139.737 54.4849 142.364 54.5488C143.357 54.5808 144.255 54.5169 144.382 54.3885C144.607 54.1643 147.427 54.3246 152.777 54.8694ZM148.548 68.3264C157.68 69.2877 164.151 72.2993 170.271 78.3871C173.892 81.9436 176.391 85.5001 178.57 90.1776C181.582 96.6819 182.575 103.058 182.575 116.259C182.575 121.865 182.735 124.846 183.376 130.196C185.49 147.787 187.221 155.092 191.257 163.294C194.654 170.183 196.993 173.002 209.489 185.081C216.153 191.522 219.55 196.007 223.042 203.056C225.669 208.311 228.232 215.936 229.386 221.8L229.738 223.658L225.797 227.471C216.762 236.153 208.399 242.241 197.217 248.169C192.892 250.508 183.023 254.673 182.671 254.352C182.639 254.288 182.799 252.815 183.087 251.053C185.714 233.719 186.003 227.279 185.522 193.412C185.17 168.869 185.33 170.439 182.383 160.346C178.986 148.747 177.673 142.532 176.167 130.773C174.501 117.604 173.411 113.247 170.367 107.383C165.753 98.508 159.153 92.9651 151.56 91.4915C148.388 90.8828 147.427 90.9467 149.413 91.6518C153.578 93.0615 158.608 96.5535 162.678 100.815C165.529 103.859 167.516 106.711 169.374 110.427C172.322 116.387 173.347 121.257 174.084 133.176C174.501 140.032 176.487 150.991 178.218 155.989C178.666 157.271 178.89 158.328 178.762 158.328C178.281 158.328 174.917 153.33 173.988 151.215C171.361 145.383 169.406 137.534 168.477 129.011C167.035 115.554 161.973 105.621 153.739 100.11C150.182 97.7071 144.991 96.1696 140.538 96.1696C139.384 96.1696 139 95.9448 137.526 94.567C135.155 92.3244 133.649 91.6837 130.669 91.6837C128.811 91.6837 127.914 91.8441 126.664 92.4528C123.3 94.0228 120.609 97.3551 119.615 101.136C119.327 102.193 119.039 104.916 118.943 107.223C118.846 109.498 118.558 112.478 118.301 113.792C117.918 115.618 115.354 124.846 113.56 130.933C112.983 132.792 112.983 108.408 113.528 100.975C113.72 98.2519 113.303 99.6616 112.407 104.82C111.125 112.349 110.388 121.193 110.58 127.569C110.708 133.208 110.805 133.753 112.054 138.623C113.528 144.358 114.457 149.228 114.97 154.002C115.547 159.577 115.93 179.762 115.93 205.748C115.93 228.945 116.283 250.284 116.764 254.352C116.988 256.403 117.052 256.403 112.823 255.058C96.8028 249.931 81.1991 240.479 69.0554 228.528L64.666 224.171L65.3067 221.832C67.069 215.456 70.5935 207.35 73.4454 203.056C75.5916 199.852 78.1229 197.225 84.1468 192.002C89.4975 187.356 91.9963 184.248 94.6241 178.962C97.7641 172.586 101.897 158.744 103.884 147.754C105.454 139.104 106.19 129.78 106.479 113.631C106.703 102.77 106.991 98.957 107.953 95.2402C111.413 81.9756 120.769 72.8442 134.482 69.3835C139.513 68.1022 143.678 67.7816 148.548 68.3264ZM132.527 95.016C133.008 95.2722 134.29 96.3938 135.347 97.5468C137.75 100.143 139.16 100.847 145.472 102.706C150.791 104.243 153.866 105.365 155.084 106.23C155.757 106.711 155.533 106.743 151.56 106.743C145.056 106.743 140.282 105.557 134.034 102.417C132.111 101.456 130.381 100.655 130.189 100.655C129.868 100.655 127.85 101.969 126.504 103.058C126.056 103.41 124.966 104.596 124.069 105.685C123.14 106.775 122.339 107.576 122.211 107.48C121.602 106.838 122.499 101.905 123.62 99.6616C125.511 95.9773 129.932 93.6702 132.527 95.016ZM130.445 107.191C137.59 111.132 147.747 111.549 155.404 108.216L156.59 107.704L157.743 109.754C158.352 110.844 158.865 111.869 158.865 111.997C158.865 112.125 156.59 112.157 153.834 112.029C148.291 111.773 145.024 112.222 142.268 113.535C140.762 114.24 139.577 115.778 139.705 116.835C139.833 117.797 140.698 117.765 142.268 116.803C145.472 114.753 148.323 114.625 155.789 116.13C160.852 117.156 160.915 117.188 161.172 118.117C161.524 119.335 162.742 126.768 163.863 134.105C164.696 139.68 164.696 139.905 164.184 141.57C163.543 143.589 161.172 146.793 159.313 148.139C158.513 148.715 157.167 149.228 155.789 149.548C154.572 149.773 153.546 149.997 153.546 149.997C153.514 149.997 153.418 149.709 153.322 149.357C153.162 148.747 153.097 148.747 151.336 149.677C150.342 150.221 149.029 150.638 148.42 150.638C144.447 150.638 131.342 140.193 126.568 133.272C125.351 131.478 123.3 126.928 123.3 125.967C123.3 124.269 125.671 122.442 127.85 122.442C129.292 122.442 132.239 123.916 132.656 124.878C133.457 126.575 130.156 128.819 126.76 128.883C125.735 128.914 124.998 129.043 125.094 129.203C125.383 129.715 127.914 131.029 128.971 131.254C130.573 131.574 132.688 130.485 133.617 128.883C134.002 128.177 134.418 127.569 134.514 127.569C134.739 127.569 134.898 127.985 137.206 133.945C138.199 136.508 139.256 138.879 139.577 139.199C140.314 140.065 142.46 141.026 143.678 141.026C145.119 141.026 146.721 139.808 147.587 138.11C148.291 136.701 148.291 136.54 147.843 135.451C147.587 134.81 147.234 134.297 147.042 134.297C146.882 134.297 146.305 134.874 145.728 135.547C145.183 136.252 144.255 137.117 143.678 137.469C142.492 138.206 140.538 138.367 140.025 137.726C139.865 137.534 139.224 135.739 138.647 133.817C136.757 127.409 134.674 123.179 132.495 121.321C130.029 119.206 126.857 119.046 123.3 120.84C122.211 121.385 121.249 121.77 121.153 121.674C120.929 121.449 122.275 117.123 123.043 115.554C124.325 113.023 128.202 106.102 128.33 106.102C128.427 106.102 129.355 106.582 130.445 107.191ZM166.715 149.1C167.356 150.285 167.484 150.702 167.131 150.542C166.843 150.446 165.978 150.19 165.241 149.965C164.472 149.741 163.799 149.516 163.735 149.484C163.607 149.42 165.369 147.53 165.625 147.466C165.721 147.466 166.202 148.171 166.715 149.1ZM152.649 153.137C152.393 155.092 151.56 156.341 148.997 158.52C143.613 163.134 141.948 165.152 139.929 169.317C138.359 172.618 137.174 176.559 136.757 179.891C136.18 184.504 136.436 185.466 137.558 182.903C141.563 173.835 144.671 168.484 148.067 164.832C150.631 162.108 157.167 156.629 157.583 156.886C158.032 157.174 157.968 158.808 157.487 160.026C157.231 160.602 155.597 162.621 153.866 164.575C149.157 169.766 147.651 171.817 145.889 175.277C144.287 178.481 142.172 185.754 143.486 183.64C143.646 183.383 145.312 181.044 147.202 178.449C149.925 174.669 151.72 172.65 155.885 168.581C158.801 165.761 161.204 163.454 161.3 163.454C161.364 163.454 161.588 163.839 161.748 164.287C162.261 165.601 161.236 167.331 157.423 171.624C155.565 173.739 153.033 176.847 151.848 178.513C149.413 181.909 146.561 186.523 146.786 186.715C146.85 186.78 150.118 183.543 154.027 179.474C157.968 175.437 161.3 172.105 161.428 172.105C161.941 172.105 162.101 173.387 161.748 174.508C161.556 175.117 159.73 177.744 157.712 180.339C152.008 187.708 150.694 190.753 149.733 198.859C148.26 211.386 148.42 210.842 144.19 217.57C142.364 220.486 139.897 224.395 138.776 226.253C137.622 228.112 136.084 230.547 135.379 231.7C133.265 235.096 132.111 236.795 131.951 236.795C131.631 236.795 129.612 232.021 129.196 230.226C127.914 224.779 129.324 220.486 133.777 216.16C138.423 211.611 138.455 210.906 134.642 198.795C130.413 185.305 130.381 181.269 134.546 171.272C137.334 164.511 140.794 160.186 146.818 155.828C148.228 154.835 150.022 153.393 150.823 152.656C151.624 151.919 152.425 151.407 152.553 151.503C152.713 151.599 152.777 152.336 152.649 153.137ZM164.151 154.002C170.271 155.444 175.173 159.417 178.089 165.312C179.178 167.556 180.524 172.681 180.78 175.79C181.87 187.837 182.318 216.128 181.614 227.535C180.813 240.479 178.922 255.186 177.929 255.922C177.288 256.403 170.015 258.166 165.594 258.903C160.243 259.799 154.379 260.344 153.995 259.96C153.771 259.736 153.802 254.801 154.027 245.542C154.443 229.81 154.475 230.194 152.329 227.246C150.791 225.164 150.406 225.164 150.662 227.15C150.919 229.105 150.951 238.365 150.694 239.935C150.599 240.607 150.086 243.523 149.541 246.438C149.029 249.354 148.26 253.68 147.843 256.051L147.106 260.376L145.28 260.312C144.255 260.28 143.357 260.184 143.229 260.088C143.133 259.992 143.229 257.973 143.422 255.634C143.774 251.725 144.223 248.585 146.049 236.41C146.433 233.975 146.689 231.668 146.626 231.284C146.561 230.867 145.857 232.405 144.895 235.064C143.261 239.486 138.103 255.41 137.334 258.358C137.11 259.223 136.757 259.896 136.533 259.896C136.084 259.896 135.924 258.967 135.636 255.25C135.508 253.84 135.283 252.046 135.123 251.245C134.835 249.867 134.931 249.515 137.814 242.434C143.774 227.791 145.6 224.491 150.374 219.749C151.848 218.307 152.457 217.923 153.226 217.923C155.757 217.955 158.449 220.23 160.659 224.267C162.261 227.182 163.895 229.105 166.234 230.675C167.291 231.411 168.253 232.021 168.317 232.021C168.573 232.021 166.907 229.458 165.753 227.983C165.177 227.279 163.863 225.26 162.838 223.498C161.845 221.768 160.531 219.749 159.954 219.012C158.865 217.73 156.59 216.321 155.468 216.321C154.155 216.321 153.963 215.84 154.635 214.526C155.468 212.861 156.302 212.155 157.68 211.931C159.634 211.643 160.947 212.092 162.678 213.63C163.575 214.431 164.312 215.039 164.312 214.943C164.312 214.879 164.087 214.238 163.799 213.565C162.71 210.874 160.979 209.368 158.865 209.208L157.839 209.144L158 207.125C158.16 204.818 159.506 201.678 161.076 199.916C161.653 199.275 163.062 198.154 164.184 197.417C166.522 195.943 166.683 195.495 164.568 196.232C161.076 197.513 157.936 197.128 156.302 195.27C155.372 194.213 155.148 193.284 155.341 191.009C155.468 189.439 156.558 187.613 158.993 184.921C160.371 183.415 161.909 181.301 162.485 180.115C163.382 178.321 163.511 177.744 163.511 175.469C163.511 173.675 163.35 172.618 162.966 171.913C162.454 170.952 162.454 170.855 163.03 169.67C163.927 167.939 164.119 166.466 163.671 164.96C162.966 162.589 160.723 161.115 159.538 162.237C159.185 162.589 159.153 162.237 159.313 160.41C159.506 158.456 159.442 157.975 158.801 156.726C158.192 155.508 157.936 155.284 157.199 155.348C156.718 155.38 155.789 155.764 155.116 156.213C153.771 157.142 153.514 156.95 154.059 155.284C154.315 154.483 154.667 154.098 155.276 153.97C155.757 153.874 156.302 153.746 156.462 153.682C157.359 153.393 162.454 153.586 164.151 154.002ZM127.145 219.365C127.145 219.461 126.792 220.23 126.376 221.063C124.87 224.042 124.518 227.951 125.414 231.7C125.671 232.854 126.632 235.417 127.497 237.435C129.9 242.85 130.925 247.496 131.791 257.236L132.015 259.575L131.118 259.415C129.26 259.127 121.217 257.589 121.153 257.525C120.897 257.3 119.744 231.829 119.84 228.816C120 224.651 120.545 222.953 122.339 221.223C123.62 219.974 127.145 218.628 127.145 219.365Z" fill="#39A7FF"/>
<path d="M177.449 68.1341C177.224 68.4222 177.096 68.6784 177.16 68.7748C177.256 68.8387 177.481 68.6145 177.705 68.2944C178.153 67.5254 178.025 67.4609 177.449 68.1341Z" fill="#39A7FF"/>
<path d="M175.333 71.0174C175.045 71.4664 174.853 71.9148 174.949 71.9787C175.013 72.0432 175.333 71.6906 175.654 71.1777C176.327 70.0242 176.07 69.8964 175.333 71.0174Z" fill="#39A7FF"/>
<path d="M179.051 71.6587C178.826 71.9468 178.698 72.2029 178.762 72.2993C178.858 72.3632 179.083 72.139 179.307 71.8184C179.755 71.0494 179.627 70.9855 179.051 71.6587Z" fill="#39A7FF"/>
<path d="M177.576 73.4848L176.968 74.2219L177.705 73.6132C178.377 73.0364 178.569 72.7797 178.313 72.7797C178.249 72.7797 177.929 73.1003 177.576 73.4848Z" fill="#39A7FF"/>
<path d="M179.275 76.4646C178.794 76.913 178.506 77.2655 178.666 77.2655C178.826 77.2655 179.275 76.913 179.691 76.4646C180.653 75.4394 180.428 75.4394 179.275 76.4646Z" fill="#39A7FF"/>
<path d="M181.614 79.0278C181.39 79.2839 181.037 79.5081 180.813 79.5081C180.62 79.5081 180.428 79.7329 180.428 79.9891C180.428 80.3416 180.684 80.2452 181.357 79.6046C181.838 79.1236 182.254 78.7072 182.254 78.6433C182.254 78.4191 181.998 78.5794 181.614 79.0278Z" fill="#39A7FF"/>
<path d="M192.187 78.8994C192.187 79.0598 192.347 79.1237 192.508 79.0278C192.7 78.9314 192.828 78.7717 192.828 78.6752C192.828 78.6113 192.7 78.5469 192.508 78.5469C192.347 78.5469 192.187 78.7072 192.187 78.8994Z" fill="#39A7FF"/>
<path d="M185.683 79.4123C185.555 79.5081 185.458 79.7649 185.458 79.9571C185.458 80.1488 185.619 80.1169 185.843 79.8927C186.035 79.7004 186.131 79.4443 186.067 79.3478C185.971 79.252 185.779 79.2839 185.683 79.4123Z" fill="#39A7FF"/>
<path d="M184.882 84.0259C183.375 85.1156 183.055 85.6598 184.401 84.763C185.363 84.1543 186.644 83.0327 186.388 83.0327C186.291 83.0327 185.619 83.4811 184.882 84.0259Z" fill="#39A7FF"/>
<path d="M188.791 84.6666C188.694 84.8589 188.149 85.2759 187.573 85.6279C187.028 85.9485 186.708 86.2366 186.868 86.2366C187.284 86.2366 189.303 84.8589 189.303 84.5388C189.303 84.2182 189.047 84.2501 188.791 84.6666Z" fill="#39A7FF"/>
<path d="M185.458 87.0376C184.945 87.6469 185.458 87.6469 186.291 87.0376C186.804 86.6531 186.804 86.5892 186.388 86.5572C186.099 86.5572 185.682 86.7814 185.458 87.0376Z" fill="#39A7FF"/>
<path d="M187.221 89.7931C186.708 90.1137 186.388 90.4018 186.515 90.4018C186.868 90.4018 188.662 89.4731 188.662 89.2808C188.662 88.9921 188.182 89.1524 187.221 89.7931Z" fill="#39A7FF"/>
<path d="M107.344 181.076C106.959 182.582 106.351 184.889 105.998 186.203C104.973 189.887 102.249 202.319 101.705 205.748C100.519 213.053 100.391 214.526 100.391 221.287C100.391 229.137 100.711 231.027 102.89 235.481L103.916 237.628L103.98 233.302C104.14 223.818 105.197 208.855 106.639 196.103C107.568 187.805 108.305 179.218 108.177 178.769C108.081 178.545 107.728 179.602 107.344 181.076Z" fill="#39A7FF"/>
<path d="M189.976 196.296C189.944 197.289 190.521 203.472 191.386 210.874C192.283 218.82 192.828 228.272 192.828 235.641C192.828 240.094 192.956 242.882 193.116 242.754C193.276 242.658 193.725 241.761 194.109 240.736C195.615 236.73 195.295 227.471 193.084 213.437C192.379 208.951 191.611 203.857 191.354 202.159C190.777 198.122 190.041 194.95 189.976 196.296Z" fill="#39A7FF"/>
<path d="M152.457 119.719C150.022 121.385 148.228 122.058 145.632 122.346C143.87 122.539 143.806 122.571 144.319 123.115C145.183 124.077 147.459 124.781 149.188 124.621C151.239 124.429 152.841 123.211 153.93 121.001C155.212 118.341 154.892 118.053 152.457 119.719Z" fill="#39A7FF"/>
<path d="M149.061 140.801C146.305 141.859 143.486 143.14 143.486 143.301C143.486 143.717 145.183 143.846 146.337 143.525C147.779 143.14 149.861 141.955 150.662 141.058C151.271 140.385 151.271 140.385 150.662 140.417C150.342 140.417 149.605 140.577 149.061 140.801Z" fill="#39A7FF"/>
<path d="M149.253 144.711C146.048 145.896 146.209 145.8 146.882 146.312C147.747 146.953 148.932 146.889 150.214 146.12C152.745 144.582 152.072 143.621 149.253 144.711Z" fill="#39A7FF"/>
<path d="M169.535 170.503C170.207 171.079 171.232 172.586 171.906 173.963C173.091 176.302 173.123 176.527 173.123 179.762C173.123 182.903 173.059 183.287 172.226 184.697C171.137 186.523 169.438 187.484 166.811 187.709C165.786 187.805 164.953 187.997 164.953 188.157C164.953 188.285 165.626 188.702 166.458 189.086C168.477 189.984 169.118 190.592 169.118 191.714C169.118 194.117 172.802 191.233 174.597 187.42C175.654 185.146 175.686 184.953 175.686 181.237C175.654 178.065 175.526 177.071 174.949 175.597C173.828 172.778 171.489 170.407 169.15 169.702C168.477 169.509 168.541 169.606 169.535 170.503Z" fill="#39A7FF"/>
</g>
<path d="M18.4649 145.953C18.4518 146.174 18.381 146.342 18.2532 146.454C18.1055 146.567 17.9309 146.617 17.7301 146.605L-1.98197 145.414C-2.1829 145.402 -2.34002 145.332 -2.45332 145.204C-2.58664 145.075 -2.64666 144.9 -2.63331 144.679L-2.53684 143.082C-2.52475 142.88 -2.4447 142.724 -2.29677 142.612C-2.16893 142.499 -2.00451 142.448 -1.80358 142.46L15.9792 143.534L16.5857 133.497C16.5988 133.277 16.6798 133.11 16.8275 132.998C16.9553 132.885 17.1299 132.834 17.3507 132.848L18.5562 132.921C18.7575 132.933 18.9247 133.003 19.0582 133.132C19.1712 133.26 19.2214 133.435 19.2077 133.656L18.4649 145.953Z" fill="#39A7FF"/>
<path d="M20.1963 127.935C20.1626 128.133 20.0747 128.292 19.9321 128.411C19.7729 128.507 19.5938 128.537 19.3953 128.504L5.28427 126.11C5.08579 126.077 4.93712 125.991 4.8382 125.851C4.72284 125.689 4.68199 125.509 4.71565 125.31L4.95794 123.881C4.9916 123.682 5.08802 123.535 5.24713 123.44C5.38639 123.341 5.55532 123.308 5.75374 123.342L19.8648 125.735C20.0633 125.769 20.2219 125.857 20.3406 125.999C20.4399 126.139 20.4724 126.308 20.4387 126.506L20.1963 127.935ZM1.78751 125.058C1.75385 125.257 1.66571 125.416 1.52308 125.534C1.36392 125.63 1.18512 125.66 0.986701 125.627L-0.620965 125.355C-0.819385 125.321 -0.968114 125.234 -1.06698 125.095C-1.18234 124.932 -1.22318 124.752 -1.18952 124.554L-0.871473 122.678C-0.83787 122.479 -0.741453 122.333 -0.582341 122.237C-0.439659 122.118 -0.269139 122.076 -0.0706623 122.11L1.53695 122.382C1.73542 122.415 1.89237 122.513 2.00773 122.676C2.10659 122.815 2.13922 122.984 2.10556 123.183L1.78751 125.058Z" fill="#39A7FF"/>
<path d="M23.2541 114.015C22.97 115.106 22.5342 115.939 21.9471 116.514C21.3413 117.084 20.6173 117.426 19.7764 117.539C18.9161 117.648 17.9599 117.565 16.9079 117.291L9.19424 115.279L8.59996 117.558C8.54918 117.753 8.44758 117.903 8.29514 118.009C8.12833 118.09 7.94754 118.106 7.75271 118.055L6.7593 117.796C6.56447 117.745 6.42391 117.646 6.33753 117.499C6.23673 117.327 6.21168 117.143 6.26251 116.949L6.8568 114.67L1.97726 113.397C1.78249 113.346 1.64187 113.247 1.5555 113.1C1.45469 112.928 1.4297 112.745 1.48047 112.55L1.83858 111.177C1.88935 110.982 1.99814 110.844 2.16502 110.762C2.31745 110.657 2.49106 110.629 2.68583 110.68L7.56536 111.952L8.5101 108.329C8.56088 108.134 8.66967 107.996 8.83654 107.915C8.98892 107.809 9.16258 107.782 9.35735 107.832L10.3506 108.091C10.5457 108.142 10.6935 108.253 10.7944 108.426C10.8806 108.573 10.8983 108.744 10.8475 108.938L9.90281 112.562L17.4122 114.52C18.3273 114.759 19.0889 114.791 19.6959 114.616C20.3035 114.442 20.7109 113.955 20.9191 113.156L21.384 111.374C21.4348 111.179 21.5438 111.041 21.7104 110.96C21.8627 110.854 22.0367 110.826 22.2312 110.877L23.2832 111.151C23.4778 111.202 23.6255 111.313 23.7265 111.486C23.8132 111.633 23.8309 111.804 23.7801 111.999L23.2541 114.015Z" fill="#39A7FF"/>
<path d="M27.6366 101.992C27.1546 103.187 26.4831 104.099 25.6216 104.728C24.7488 105.332 23.7498 105.656 22.6248 105.701C21.4992 105.747 20.3206 105.521 19.0883 105.024L11.1909 101.84C11.0043 101.764 10.8777 101.648 10.8109 101.491C10.7327 101.307 10.7316 101.123 10.8069 100.936L11.3711 99.5355C11.4464 99.349 11.572 99.2257 11.7482 99.1664C11.9125 99.0808 12.0883 99.0757 12.2754 99.151L20.0324 102.279C22.8142 103.401 24.6946 102.749 25.673 100.321C26.1396 99.1636 26.1488 98.0927 25.6986 97.1086C25.2382 96.0977 24.3545 95.3292 23.0475 94.8021L15.2905 91.674C15.1039 91.5987 14.9767 91.4824 14.9099 91.3255C14.8318 91.1418 14.8306 90.9569 14.9059 90.7704L15.4593 89.3978C15.5421 89.1924 15.6716 89.06 15.8473 89.0007C16.0047 88.9339 16.1764 88.9385 16.363 89.0132L29.6374 94.3662C29.8239 94.4415 29.9603 94.5613 30.0458 94.7262C30.1126 94.8837 30.1046 95.0645 30.0219 95.2699L29.5022 96.5581C29.4269 96.7452 29.307 96.881 29.1422 96.9666C28.9665 97.0259 28.785 97.0179 28.5985 96.9426L27.3662 96.4457C27.8163 97.2136 28.0907 98.0403 28.1889 98.9262C28.295 99.794 28.1107 100.816 27.6366 101.992Z" fill="#39A7FF"/>
<path d="M33.2726 88.9562C33.1744 89.1319 33.0381 89.2517 32.8641 89.3156C32.6821 89.3521 32.503 89.3213 32.3272 89.2232L19.8647 82.2465C19.689 82.1484 19.5692 82.0121 19.5053 81.8381C19.4511 81.6458 19.4733 81.4621 19.5715 81.2864L20.2498 80.0746C20.3485 79.8989 20.4934 79.7843 20.6851 79.7301C20.8768 79.6759 21.0605 79.6981 21.2362 79.7962L22.3954 80.4455C21.9949 79.7597 21.8175 79.0255 21.8632 78.2439C21.9088 77.4618 22.1724 76.6408 22.6539 75.7799L23.2443 74.7257C23.3425 74.5505 23.4828 74.4444 23.6648 74.4073C23.8291 74.3611 23.9991 74.3873 24.1748 74.4855L25.2548 75.0902C25.4305 75.1883 25.5417 75.3201 25.5879 75.4844C25.6342 75.6487 25.6085 75.8187 25.5104 75.9944L24.6249 77.5753C24.0944 78.524 23.9575 79.4277 24.2148 80.2869C24.4544 81.1364 25.0483 81.8261 25.997 82.3572L33.7432 86.6936C33.9189 86.7917 34.0342 86.9372 34.0878 87.1289C34.1249 87.3109 34.0935 87.4894 33.9954 87.6651L33.2726 88.9562Z" fill="#39A7FF"/>
<path d="M48.4742 77.2598C47.6601 78.3597 46.8437 79.1579 46.025 79.6542C45.2189 80.134 44.4556 80.421 43.7356 80.5139C43.0436 80.6024 42.4212 80.5801 41.8689 80.4466C41.3446 80.3091 40.9556 80.1585 40.7005 79.9948C40.5271 79.8915 40.4256 79.7409 40.3959 79.5441C40.3788 79.3307 40.4239 79.151 40.5317 79.0055L41.3937 77.8406C41.5015 77.6951 41.6242 77.5976 41.7605 77.5485C41.8969 77.4994 42.0943 77.5205 42.3527 77.6112C42.6676 77.694 43.0419 77.7459 43.4772 77.7676C43.9284 77.8012 44.4088 77.6934 44.9182 77.4447C45.4442 77.2079 45.9771 76.7253 46.5162 75.9973C47.0787 75.2368 47.4467 74.5203 47.6201 73.8465C47.809 73.1853 47.7405 72.5332 47.4147 71.8914C47.1169 71.2451 46.5231 70.5924 45.6331 69.9335L43.9826 68.7115C44.1971 69.4714 44.2405 70.2923 44.1127 71.1749C43.9689 72.0455 43.5439 72.9577 42.8371 73.9127C42.1667 74.8187 41.4376 75.481 40.6515 75.9009C39.8488 76.3082 39.0244 76.525 38.1789 76.5501C37.3295 76.5473 36.4794 76.3932 35.6277 76.0886C34.7885 75.768 33.9766 75.3418 33.1922 74.8112C32.7273 74.4923 32.2823 74.1626 31.8572 73.8231C31.1207 73.2275 30.4766 72.5755 29.925 71.8663C29.3847 71.1406 28.9893 70.3722 28.7389 69.5604C28.5004 68.7326 28.4668 67.8814 28.6385 67.0068C28.7942 66.1197 29.2073 65.2234 29.8782 64.3175C30.597 63.3471 31.3757 62.6836 32.2155 62.3282C33.0501 61.9448 33.8762 61.7423 34.6938 61.7211L33.6503 60.9487C33.4883 60.8289 33.3867 60.6783 33.3457 60.4974C33.316 60.3006 33.3611 60.1209 33.4809 59.9589L34.3075 58.843C34.4273 58.681 34.5859 58.5857 34.7828 58.556C34.9801 58.5263 35.1593 58.572 35.3213 58.6918L47.0913 67.4062C48.1752 68.2089 49.0002 69.1074 49.5655 70.1023C50.1434 71.0813 50.3637 72.171 50.2262 73.3719C50.1007 74.5562 49.5165 75.8524 48.4742 77.2598ZM41.2551 71.9896C41.8541 71.1806 42.1473 70.3956 42.1348 69.6351C42.1336 68.8581 41.934 68.1467 41.5358 67.5009C41.149 66.8391 40.6703 66.284 40.0998 65.8367C39.8853 65.653 39.6166 65.4414 39.2931 65.2018C38.9531 64.9502 38.6639 64.7482 38.4254 64.597C37.8309 64.1817 37.1612 63.8862 36.415 63.7093C35.6813 63.5165 34.9425 63.5336 34.1991 63.7595C33.4678 63.9695 32.8026 64.4784 32.2035 65.2873C31.6045 66.0963 31.3113 66.8813 31.3238 67.6424C31.3204 68.3908 31.5406 69.0926 31.9833 69.7458C32.4101 70.3876 32.9509 70.9758 33.6064 71.5115C34.0154 71.8389 34.4439 72.1567 34.8929 72.4636C35.5963 72.9343 36.3254 73.2863 37.0796 73.5191C37.8178 73.7398 38.5526 73.7455 39.284 73.5356C39.9994 73.3137 40.656 72.7985 41.2551 71.9896Z" fill="#39A7FF"/>
<path d="M51.8259 62.7275C51.6889 62.8752 51.5281 62.9591 51.3438 62.9802C51.1584 62.9728 50.9918 62.9009 50.8446 62.7634L40.3583 53.0221C40.2111 52.8852 40.134 52.7312 40.1278 52.5606C40.1204 52.3615 40.1854 52.1881 40.3223 52.0403L41.3087 50.9786C41.4456 50.8308 41.6071 50.7612 41.7925 50.7687C41.9631 50.7624 42.1222 50.8274 42.27 50.9643L52.7558 60.7062C52.903 60.8431 52.9874 61.004 53.0085 61.1883C53.0148 61.3588 52.9492 61.518 52.8123 61.6658L51.8259 62.7275ZM38.0124 50.2238C37.8749 50.3716 37.7146 50.4555 37.5297 50.4766C37.3443 50.4691 37.1783 50.3973 37.0305 50.2598L35.8359 49.1502C35.6887 49.0132 35.6117 48.8592 35.6054 48.6886C35.598 48.4895 35.6631 48.3161 35.8 48.1689L37.0944 46.7752C37.2319 46.6274 37.3928 46.5572 37.5782 46.5647C37.7625 46.5441 37.9285 46.6017 38.0763 46.7387L39.2709 47.8488C39.4181 47.9858 39.4957 48.1535 39.5031 48.3532C39.5094 48.5237 39.4437 48.6829 39.3068 48.8301L38.0124 50.2238Z" fill="#39A7FF"/>
<path d="M60.8648 54.2019C60.1061 54.8637 59.2834 55.3139 58.3969 55.5523C57.5103 55.7914 56.6523 55.8182 55.8233 55.6328C54.9938 55.4474 54.295 55.0286 53.7262 54.376C52.814 53.3291 52.511 52.1242 52.8185 50.7613C53.126 49.3984 53.8768 48.0229 55.0703 46.6354L58.0454 43.201L57.4698 42.5409C56.8348 41.8124 56.1268 41.4285 55.3447 41.3891C54.5779 41.3366 53.7239 41.7206 52.7831 42.5404C52.1003 43.136 51.6655 43.755 51.4784 44.3985C51.3067 45.0289 51.3227 45.6291 51.5263 46.1996C51.6336 46.5065 51.5737 46.7592 51.3461 46.9578L50.3214 47.8506C50.1549 47.9961 49.986 48.0628 49.8154 48.0514C49.6471 48.0109 49.5033 47.923 49.3841 47.7861C49.1862 47.5585 49.0247 47.2054 48.9003 46.7256C48.7919 46.2332 48.7805 45.669 48.8667 45.0329C48.9534 44.3968 49.1844 43.7276 49.561 43.0259C49.9392 42.2956 50.5382 41.5734 51.3575 40.8591C52.268 40.0656 53.1403 39.519 53.9738 39.2195C54.7947 38.9046 55.5512 38.7922 56.2444 38.8829C56.9524 38.9599 57.6004 39.1824 58.1886 39.551C58.7922 39.9064 59.3188 40.3422 59.7683 40.858L66.1967 48.2328C66.3291 48.3846 66.3884 48.5597 66.3747 48.7588C66.3633 48.9294 66.2811 49.0806 66.1294 49.2129L65.0825 50.1257C64.9154 50.2712 64.7471 50.338 64.5765 50.326C64.3928 50.2992 64.2348 50.2102 64.1024 50.0584L63.2495 49.0794C63.29 49.5244 63.2626 50.0293 63.1668 50.5935C63.0578 51.1424 62.8325 51.726 62.4908 52.345C62.1353 52.948 61.5934 53.5676 60.8648 54.2019ZM59.8551 52.0786C60.4769 51.536 60.9339 50.9113 61.2248 50.2033C61.5026 49.4805 61.5409 48.7126 61.3401 47.8996C61.1541 47.0736 60.6908 46.2361 59.9503 45.386L59.3947 44.7488L57.0916 47.4375C56.1462 48.5283 55.5592 49.4936 55.3304 50.334C55.0885 51.1595 55.2055 51.8452 55.6819 52.3912C56.0521 52.8162 56.484 53.0672 56.978 53.1437C57.4744 53.1922 57.9718 53.1191 58.4699 52.9252C58.9833 52.7175 59.4454 52.4357 59.8551 52.0786Z" fill="#39A7FF"/>
<path d="M83.5443 38.0181C82.5728 38.5492 81.6417 38.8401 80.7518 38.8909C79.8521 38.924 79.0134 38.7745 78.2359 38.4431C77.4657 38.0837 76.7583 37.5873 76.1136 36.9535C75.4861 36.31 74.923 35.574 74.4244 34.7451C74.2521 34.4724 74.098 34.2123 73.9628 33.9652C73.8276 33.7176 73.6918 33.4478 73.5549 33.1557C73.1362 32.3062 72.8252 31.4436 72.6222 30.5685C72.4362 29.6836 72.4002 28.8199 72.5132 27.9778C72.6438 27.1261 72.9707 26.3394 73.4939 25.6177C74.0073 24.8783 74.7495 24.2428 75.7211 23.7117C76.7634 23.1417 77.7298 22.8536 78.6215 22.8479C79.5132 22.8422 80.3296 22.9928 81.0707 23.2986L77.7384 17.2051C77.642 17.0283 77.6174 16.8583 77.6659 16.6945C77.7218 16.5028 77.8382 16.3591 78.0145 16.2627L79.2861 15.5672C79.463 15.4708 79.6381 15.4554 79.8116 15.521C79.993 15.5592 80.1322 15.6665 80.2292 15.8433L89.8484 33.4352C89.9448 33.6115 89.9653 33.7958 89.9094 33.9869C89.8609 34.1507 89.7485 34.2807 89.5722 34.3777L88.3799 35.0292C88.1859 35.1359 88.0068 35.165 87.8425 35.1165C87.6691 35.0509 87.5338 34.93 87.4374 34.7531L86.8287 33.6406C86.6964 34.4473 86.3832 35.238 85.8891 36.0128C85.3853 36.7704 84.6038 37.4384 83.5443 38.0181ZM82.9271 35.5678C83.8102 35.0851 84.4058 34.4952 84.7133 33.7992C85.0208 33.1032 85.1383 32.3741 85.0653 31.6108C84.9826 30.8303 84.7715 30.1081 84.4315 29.4452C84.2946 29.1531 84.12 28.8125 83.9078 28.424C83.6853 28.0178 83.4884 27.6778 83.3162 27.4051C82.9602 26.7963 82.4769 26.2692 81.8659 25.8231C81.2726 25.3678 80.596 25.0951 79.8361 25.0061C79.0939 24.9074 78.2986 25.0894 77.4508 25.5532C76.55 26.0456 75.9459 26.64 75.6384 27.336C75.3206 28.0144 75.2259 28.7429 75.3537 29.5222C75.4718 30.2832 75.716 31.0449 76.0862 31.8059C76.3486 32.3279 76.6288 32.8402 76.9266 33.3422C77.3676 34.0651 77.8816 34.6903 78.4686 35.218C79.0454 35.7286 79.71 36.0419 80.4625 36.1582C81.2047 36.2569 82.0262 36.0601 82.9271 35.5678Z" fill="#39A7FF"/>
<path d="M99.7454 30.4116C98.8012 30.7607 97.8719 30.8891 96.9585 30.7978C96.0446 30.7065 95.2334 30.427 94.5237 29.9592C93.8145 29.4919 93.3096 28.8518 93.0095 28.04C92.528 26.737 92.673 25.5036 93.4443 24.3386C94.2156 23.1737 95.4056 22.1542 97.0144 21.2808L101.014 19.126L100.711 18.3045C100.376 17.3985 99.8498 16.7881 99.1327 16.4737C98.4344 16.152 97.4999 16.2079 96.3293 16.6403C95.4798 16.9547 94.8534 17.3791 94.4501 17.9142C94.0661 18.4425 93.8676 19.0096 93.8556 19.6149C93.847 19.9401 93.701 20.1552 93.4174 20.2596L92.143 20.7308C91.9353 20.8078 91.7539 20.8101 91.5987 20.7388C91.4555 20.6418 91.3528 20.5077 91.2895 20.3383C91.1851 20.0548 91.16 19.6674 91.2142 19.175C91.2872 18.6759 91.4766 18.1442 91.7835 17.5805C92.0899 17.0163 92.544 16.4732 93.1448 15.9506C93.7575 15.4018 94.5739 14.9391 95.5933 14.5626C96.7263 14.1438 97.7356 13.9424 98.6215 13.9584C99.5007 13.9555 100.248 14.1193 100.864 14.4496C101.498 14.7731 102.025 15.2112 102.444 15.7646C102.882 16.3111 103.22 16.905 103.457 17.5474L106.849 26.7239C106.918 26.9127 106.911 27.0976 106.828 27.2784C106.757 27.4336 106.627 27.5465 106.438 27.6161L105.135 28.0976C104.927 28.1747 104.746 28.1769 104.591 28.1056C104.429 28.0155 104.313 27.8757 104.243 27.6869L103.793 26.4689C103.673 26.8996 103.468 27.3617 103.178 27.8552C102.881 28.3298 102.463 28.7954 101.924 29.2523C101.378 29.6905 100.651 30.0767 99.7454 30.4116ZM99.5549 28.0674C100.329 27.7816 100.978 27.3594 101.501 26.8009C102.018 26.2241 102.326 25.5196 102.427 24.6883C102.546 23.8503 102.41 22.9027 102.019 21.845L101.726 21.052L98.6187 22.7481C97.3482 23.4321 96.4565 24.1264 95.9442 24.831C95.425 25.5161 95.291 26.199 95.542 26.8791C95.7377 27.4073 96.0526 27.7953 96.4873 28.0423C96.934 28.2637 97.4246 28.3721 97.9598 28.3675C98.5131 28.3561 99.0449 28.2562 99.5549 28.0674Z" fill="#39A7FF"/>
<path d="M121.946 23.5142C121.746 23.5371 121.569 23.4966 121.415 23.3927C121.279 23.2666 121.2 23.1035 121.176 22.9038L118.923 3.31505C118.898 3.09506 118.939 2.91821 119.045 2.78437C119.169 2.62828 119.331 2.53877 119.531 2.51578L121.031 2.34326C121.27 2.31565 121.458 2.35496 121.591 2.46113C121.725 2.56735 121.807 2.65926 121.836 2.73696L129.589 14.1244L134.585 1.27067C134.615 1.18606 134.674 1.07801 134.76 0.94651C134.867 0.812728 135.039 0.732002 135.28 0.704447L136.749 0.53535C136.969 0.510077 137.147 0.560507 137.284 0.686701C137.437 0.790589 137.527 0.952554 137.552 1.17254L139.805 20.761C139.828 20.9613 139.778 21.1393 139.654 21.295C139.547 21.4291 139.384 21.5084 139.165 21.534L137.694 21.7029C137.495 21.7257 137.318 21.6852 137.164 21.5814C137.028 21.4553 136.948 21.2922 136.925 21.0925L135.228 6.33339L131.343 16.6888C131.286 16.8982 131.185 17.0716 131.038 17.2102C130.89 17.3289 130.696 17.4014 130.455 17.4293L129.525 17.536C129.265 17.5662 129.05 17.54 128.879 17.4584C128.725 17.3546 128.586 17.2085 128.463 17.0203L122.329 7.81697L124.026 22.5758C124.049 22.776 123.999 22.954 123.875 23.1098C123.769 23.2438 123.616 23.322 123.415 23.3454L121.946 23.5142Z" fill="#39A7FF"/>
<path d="M150.342 22.0783C149.338 22.0235 148.434 21.772 147.632 21.3247C146.83 20.8774 146.197 20.2984 145.732 19.5875C145.267 18.8767 145.058 18.0888 145.105 17.2245C145.181 15.8376 145.805 14.7634 146.975 14.0006C148.147 13.2384 149.644 12.7763 151.467 12.6143L155.994 12.2281L156.042 11.3535C156.095 10.3888 155.855 9.61918 155.322 9.04583C154.809 8.47362 153.93 8.153 152.683 8.08454C151.779 8.03491 151.035 8.17525 150.452 8.50614C149.89 8.83817 149.483 9.27974 149.23 9.83027C149.094 10.1252 148.874 10.2644 148.573 10.2479L147.216 10.1731C146.995 10.1612 146.828 10.0916 146.713 9.96434C146.62 9.81829 146.579 9.65456 146.589 9.47371C146.606 9.17191 146.737 8.80622 146.982 8.37607C147.247 7.94705 147.633 7.53515 148.139 7.13939C148.644 6.74381 149.277 6.4257 150.035 6.18512C150.816 5.92554 151.749 5.82559 152.834 5.88516C154.04 5.95139 155.047 6.16789 155.853 6.53472C156.661 6.88147 157.281 7.32886 157.715 7.87688C158.168 8.4257 158.478 9.03785 158.642 9.71218C158.827 10.3876 158.9 11.0671 158.863 11.75L158.327 21.5187C158.316 21.72 158.236 21.8866 158.087 22.0201C157.96 22.1336 157.796 22.1856 157.595 22.1742L156.208 22.0983C155.987 22.0863 155.82 22.0161 155.706 21.8889C155.593 21.7417 155.542 21.5677 155.553 21.3669L155.624 20.0702C155.343 20.4176 154.971 20.7599 154.509 21.0976C154.048 21.4148 153.48 21.6761 152.803 21.8809C152.127 22.0658 151.307 22.1314 150.342 22.0783ZM151.1 19.8522C151.924 19.8973 152.687 19.7678 153.389 19.4637C154.092 19.1391 154.655 18.616 155.078 17.8931C155.521 17.1714 155.774 16.2478 155.835 15.1222L155.881 14.2779L152.356 14.5985C150.918 14.7212 149.824 15.0041 149.074 15.4468C148.325 15.869 147.93 16.4423 147.89 17.1657C147.86 17.7288 147.994 18.2098 148.295 18.6091C148.617 18.9902 149.024 19.2846 149.517 19.4928C150.029 19.7028 150.557 19.822 151.1 19.8522ZM154.501 4.16219C153.999 4.13463 153.601 4.03217 153.308 3.8548C153.017 3.65735 152.745 3.47103 152.493 3.29589C152.262 3.10175 151.985 2.99586 151.663 2.97823C151.442 2.96608 151.267 3.02701 151.139 3.16113C151.031 3.29629 150.922 3.44154 150.813 3.59683C150.725 3.73312 150.57 3.79519 150.349 3.78304L149.384 3.73009C149.244 3.72233 149.126 3.66545 149.031 3.55946C148.936 3.45346 148.892 3.34016 148.898 3.21955C148.914 2.91805 148.981 2.61928 149.099 2.3233C149.237 2.00833 149.423 1.72627 149.659 1.47708C149.896 1.20781 150.169 1.00105 150.479 0.856832C150.81 0.713694 151.166 0.652596 151.548 0.673533C152.07 0.702229 152.478 0.8153 152.769 1.01275C153.062 1.19012 153.334 1.37644 153.585 1.57167C153.838 1.74681 154.105 1.84208 154.386 1.85754C154.647 1.87192 154.832 1.81151 154.94 1.6763C155.05 1.52101 155.148 1.37524 155.237 1.23895C155.346 1.08366 155.511 1.01207 155.732 1.02422L156.697 1.07722C156.857 1.086 156.976 1.14288 157.05 1.2478C157.146 1.35385 157.189 1.47719 157.182 1.61788C157.166 1.8993 157.089 2.1975 156.95 2.51248C156.832 2.82853 156.656 3.1212 156.419 3.39048C156.183 3.63967 155.9 3.83581 155.57 3.97895C155.26 4.12317 154.904 4.18427 154.501 4.16219Z" fill="#39A7FF"/>
<path d="M169.773 24.4088C167.739 24.0043 166.244 23.0601 165.287 21.5768C164.334 20.0736 164.014 18.224 164.328 16.0287C164.359 15.7686 164.414 15.4405 164.493 15.0458C164.575 14.631 164.652 14.2973 164.722 14.0445C165.081 12.6588 165.65 11.4995 166.431 10.5668C167.215 9.6146 168.158 8.95054 169.259 8.57401C170.38 8.20205 171.612 8.14956 172.954 8.41655C174.455 8.71492 175.646 9.28029 176.527 10.1126C177.428 10.9484 178.029 12.0021 178.33 13.2726C178.632 14.5437 178.627 15.9591 178.317 17.5189L178.217 18.022C178.174 18.2394 178.071 18.3934 177.909 18.4847C177.767 18.5794 177.598 18.6074 177.4 18.568L167.153 16.5296C167.149 16.549 167.141 16.5884 167.129 16.6477C167.118 16.707 167.108 16.7567 167.1 16.796C166.979 17.613 167.005 18.4088 167.18 19.1824C167.358 19.9361 167.7 20.5893 168.206 21.1415C168.712 21.6938 169.379 22.052 170.209 22.2169C170.919 22.3584 171.533 22.3681 172.051 22.2449C172.567 22.1222 173 21.9619 173.347 21.7639C173.698 21.5466 173.937 21.3783 174.063 21.2596C174.291 21.0383 174.459 20.9179 174.566 20.8979C174.677 20.8586 174.84 20.8603 175.057 20.9036L176.479 21.1866C176.676 21.2254 176.823 21.3161 176.917 21.4582C177.036 21.5842 177.066 21.7446 177.006 21.938C176.928 22.23 176.697 22.5638 176.315 22.9392C175.936 23.2952 175.429 23.6255 174.794 23.9301C174.159 24.2342 173.419 24.4464 172.574 24.5657C171.733 24.6655 170.799 24.613 169.773 24.4088ZM167.56 14.4861L175.674 16.1L175.692 16.0116C175.869 15.1228 175.858 14.3001 175.66 13.5419C175.482 12.7883 175.126 12.1528 174.592 11.6365C174.062 11.1002 173.373 10.747 172.524 10.5782C171.675 10.4093 170.903 10.4715 170.209 10.7642C169.538 11.0414 168.976 11.4938 168.523 12.1219C168.069 12.7501 167.754 13.5088 167.577 14.3971L167.56 14.4861Z" fill="#39A7FF"/>
</g>
<defs>
<clipPath id="clip0_27_214">
<rect width="263" height="264.141" fill="white"/>
</clipPath>
</defs>
</svg>
